# xmcd CD database file
#
# Track frame offsets:
#	150
#	14260
#	25460
#	36657
#	51547
#	63052
#	77170
#	89535
#	102465
#	117897
#	128347
#	140702
#
# Disc length: 2407 seconds
#
# Revision: 0
# Processed by: cddbd v1.5PL3 Copyright (c) Steve Scherf et al.
# Submitted via: CDex 1.51
#
DISCID=a709650c
DTITLE=Los Infernos - Rock and Roll Nightmare
DYEAR=1900
DGENRE=Salsa
TTITLE0=We Gottta Get Out
TTITLE1=Gimme The Gun
TTITLE2=Start
TTITLE3=It Brings Me Down
TTITLE4=Nightmares
TTITLE5=Time
TTITLE6=Nowhere Fast
TTITLE7=Dead and Gone
TTITLE8=Loaded
TTITLE9=Demons
TTITLE10=Rise and Fall
TTITLE11=When I Was Young
EXTD=
EXTT0=
EXTT1=
EXTT2=
EXTT3=
EXTT4=
EXTT5=
EXTT6=
EXTT7=
EXTT8=
EXTT9=
EXTT10=
EXTT11=
PLAYORDER=
